<svg width="100%" viewBox="0 52 810 1180" role="img" xmlns="http://www.w3.org/2000/svg">
<title>Token generation stages 1-4 with a detailed zoom into one pass of the loop below stage 4</title>
<defs>
<marker id="b" viewBox="0 0 10 10" refX="8" refY="5" markerWidth="6.5" markerHeight="6.5" orient="auto-start-reverse"><path d="M1.5 1L8.5 5L1.5 9" fill="none" stroke="#185FA5" stroke-width="1.8" stroke-linecap="round" stroke-linejoin="round"/></marker>
<marker id="g" viewBox="0 0 10 10" refX="8" refY="5" markerWidth="7" markerHeight="7" orient="auto-start-reverse"><path d="M1.5 1L8.5 5L1.5 9" fill="none" stroke="#0F6E56" stroke-width="1.8" stroke-linecap="round" stroke-linejoin="round"/></marker>
<marker id="gr" viewBox="0 0 10 10" refX="8" refY="5" markerWidth="7" markerHeight="7" orient="auto-start-reverse"><path d="M1.5 1L8.5 5L1.5 9" fill="none" stroke="#888780" stroke-width="1.7" stroke-linecap="round" stroke-linejoin="round"/></marker>
<marker id="cu" viewBox="0 0 10 10" refX="8" refY="5" markerWidth="7.5" markerHeight="7.5" orient="auto-start-reverse"><path d="M1.5 1L8.5 5L1.5 9" fill="none" stroke="#C7891C" stroke-width="1.7" stroke-linecap="round" stroke-linejoin="round"/></marker>
</defs>

<rect x="0" y="0" width="810" height="1306" fill="#FFFFFF"/>

<!-- ═══════ ① FRAME ARRIVES (amber) ═══════ -->
<rect x="20" y="60" width="232" height="150" rx="8" fill="#FFFFFF" stroke="#EF9F27" stroke-width="1.4"/>
<rect x="20" y="60" width="232" height="24" rx="8" fill="#FAEEDA"/><rect x="20" y="74" width="232" height="10" fill="#FAEEDA"/>
<text x="136" y="76" text-anchor="middle" font-family="sans-serif" font-size="10" font-weight="600" fill="#854F0B">① The frame arrives</text>
<text x="32" y="102" font-family="monospace" font-size="8.5" fill="#888780">system: <tspan fill="#444441">"You are helpful…"</tspan></text>
<text x="32" y="119" font-family="monospace" font-size="8.5" fill="#888780">history: <tspan fill="#444441">2 prior turns</tspan></text>
<text x="32" y="136" font-family="monospace" font-size="8.5" fill="#888780">user: <tspan fill="#444441">"NYC pizza shop — best?"</tspan></text>
<rect x="30" y="146" width="212" height="32" rx="6" fill="#FFF6D6" stroke="#E6B800" stroke-width="1.2"/>
<text x="40" y="160" font-family="sans-serif" font-size="8" font-weight="600" fill="#9A7B00">⚙ generation config</text>
<text x="40" y="173" font-family="monospace" font-size="9" font-weight="600" fill="#633806">temperature 0.7 · top_p 1.0</text>
<text x="32" y="198" font-family="sans-serif" font-size="8" fill="#5F5E5A">the request the model receives</text>

<line x1="256" y1="135" x2="272" y2="135" stroke="#185FA5" stroke-width="2.2" marker-end="url(#b)"/>

<!-- ═══════ ② TOKENIZE (teal) ═══════ -->
<rect x="276" y="60" width="232" height="150" rx="8" fill="#FFFFFF" stroke="#1D9E75" stroke-width="1.4"/>
<rect x="276" y="60" width="232" height="24" rx="8" fill="#E1F5EE"/><rect x="276" y="74" width="232" height="10" fill="#E1F5EE"/>
<text x="392" y="76" text-anchor="middle" font-family="sans-serif" font-size="10" font-weight="600" fill="#0F6E56">② Tokenize the prompt</text>
<text x="392" y="102" text-anchor="middle" font-family="monospace" font-size="9" fill="#444441">"…you should try the"</text>
<line x1="392" y1="108" x2="392" y2="124" stroke="#1D9E75" stroke-width="1.6" marker-end="url(#g)"/>
<rect x="300" y="128" width="22" height="18" rx="4" fill="#F5F4F2" stroke="#C9C6BC"/><text x="311" y="140" text-anchor="middle" font-family="monospace" font-size="8.5" fill="#444441">you</text>
<rect x="326" y="128" width="40" height="18" rx="4" fill="#F5F4F2" stroke="#C9C6BC"/><text x="346" y="140" text-anchor="middle" font-family="monospace" font-size="8.5" fill="#444441">should</text>
<rect x="370" y="128" width="22" height="18" rx="4" fill="#F5F4F2" stroke="#C9C6BC"/><text x="381" y="140" text-anchor="middle" font-family="monospace" font-size="8.5" fill="#444441">try</text>
<rect x="396" y="128" width="26" height="18" rx="4" fill="#F5F4F2" stroke="#C9C6BC"/><text x="409" y="140" text-anchor="middle" font-family="monospace" font-size="8.5" fill="#444441">the</text>
<text x="392" y="164" text-anchor="middle" font-family="monospace" font-size="7.5" fill="#888780">ids: 481 1023 776 290</text>
<text x="288" y="186" font-family="sans-serif" font-size="8" fill="#5F5E5A">text → input tokens.</text>
<text x="288" y="198" font-family="sans-serif" font-size="8" fill="#5F5E5A">the model reads tokens, not letters.</text>

<line x1="512" y1="135" x2="528" y2="135" stroke="#185FA5" stroke-width="2.2" marker-end="url(#b)"/>

<!-- ═══════ ③ EXTRACT SETTINGS (purple) ═══════ -->
<rect x="532" y="60" width="258" height="150" rx="8" fill="#FFFFFF" stroke="#7B3FA0" stroke-width="1.4"/>
<rect x="532" y="60" width="258" height="24" rx="8" fill="#F0E8F8"/><rect x="532" y="74" width="258" height="10" fill="#F0E8F8"/>
<text x="661" y="76" text-anchor="middle" font-family="sans-serif" font-size="10" font-weight="600" fill="#7B3FA0">③ Extract temperature &amp; top_p</text>
<text x="661" y="100" text-anchor="middle" font-family="sans-serif" font-size="8" fill="#5F5E5A">pulled out of the generation config:</text>
<rect x="548" y="110" width="112" height="48" rx="8" fill="#E1F5EE" stroke="#1D9E75" stroke-width="1.2"/>
<text x="604" y="125" text-anchor="middle" font-family="sans-serif" font-size="8.5" fill="#0F6E56">temperature</text>
<text x="604" y="147" text-anchor="middle" font-family="monospace" font-size="17" font-weight="600" fill="#0F6E56">0.7</text>
<rect x="668" y="110" width="106" height="48" rx="8" fill="#F0E8F8" stroke="#7B3FA0" stroke-width="1.2"/>
<text x="721" y="125" text-anchor="middle" font-family="sans-serif" font-size="8.5" fill="#7B3FA0">top_p</text>
<text x="721" y="147" text-anchor="middle" font-family="monospace" font-size="17" font-weight="600" fill="#7B3FA0">1.0</text>
<text x="661" y="180" text-anchor="middle" font-family="sans-serif" font-size="8" font-weight="600" fill="#444441">these two configure EVERY step of the loop</text>
<text x="661" y="194" text-anchor="middle" font-family="sans-serif" font-size="8" fill="#5F5E5A">↓</text>

<line x1="661" y1="210" x2="661" y2="252" stroke="#7B3FA0" stroke-width="1.6" marker-end="url(#b)"/>

<!-- ═══════ ④ THE LOOP (blue engine) ═══════ -->
<rect x="20" y="226" width="770" height="256" rx="10" fill="#FFFFFF" stroke="#185FA5" stroke-width="1.8"/>
<rect x="20" y="226" width="770" height="24" rx="10" fill="#E6EEF7"/><rect x="20" y="240" width="770" height="10" fill="#E6EEF7"/>
<text x="405" y="242" text-anchor="middle" font-family="sans-serif" font-size="11" font-weight="600" fill="#1d3a5f">④ The generation loop — produce one token at a time  ⚙↻</text>

<rect x="556" y="256" width="220" height="18" rx="9" fill="#F0E8F8" stroke="#7B3FA0" stroke-width="0.8"/>
<text x="666" y="268" text-anchor="middle" font-family="monospace" font-size="8" fill="#7B3FA0">this loop uses T = 0.7 · top_p = 1.0</text>

<text x="34" y="266" font-family="sans-serif" font-size="8" font-weight="600" fill="#5F5E5A">context grows each pass:</text>
<text x="34" y="284" font-family="monospace" font-size="8.5" fill="#888780">❶ [you][should][try][the]</text>
<text x="214" y="284" font-family="monospace" font-size="8.5" fill="#444441">→ 🎲 →</text>
<rect x="272" y="275" width="64" height="14" rx="7" fill="#E1F5EE" stroke="#1D9E75" stroke-width="0.8"/><text x="304" y="285" text-anchor="middle" font-family="monospace" font-size="8" fill="#0F6E56">cheese</text>
<text x="34" y="302" font-family="monospace" font-size="8.5" fill="#888780">❷ [you][should][try][the][cheese]</text>
<text x="244" y="302" font-family="monospace" font-size="8.5" fill="#444441">→ 🎲 →</text>
<rect x="302" y="293" width="40" height="14" rx="7" fill="#E1F5EE" stroke="#1D9E75" stroke-width="0.8"/><text x="322" y="303" text-anchor="middle" font-family="monospace" font-size="8" fill="#0F6E56">slice</text>

<g font-family="sans-serif" font-size="8.5" text-anchor="middle">
<rect x="38" y="322" width="132" height="40" rx="9" fill="#FAEEDA" stroke="#EF9F27" stroke-width="1.2"/>
<circle cx="52" cy="342" r="4" fill="#EF9F27"/><text x="110" y="339" fill="#854F0B" font-weight="600">score whole</text><text x="110" y="351" fill="#854F0B" font-weight="600">vocabulary</text>
<line x1="170" y1="342" x2="188" y2="342" stroke="#185FA5" stroke-width="2" marker-end="url(#b)"/>
<rect x="190" y="322" width="122" height="40" rx="9" fill="#E1F5EE" stroke="#1D9E75" stroke-width="1.2"/>
<circle cx="204" cy="342" r="4" fill="#1D9E75"/><text x="255" y="339" fill="#0F6E56" font-weight="600">temperature</text><text x="255" y="351" fill="#0F6E56">reshapes odds</text>
<line x1="312" y1="342" x2="328" y2="342" stroke="#185FA5" stroke-width="2" marker-end="url(#b)"/>
<rect x="330" y="322" width="108" height="40" rx="9" fill="#F0E8F8" stroke="#7B3FA0" stroke-width="1.2"/>
<circle cx="344" cy="342" r="4" fill="#7B3FA0"/><text x="389" y="339" fill="#7B3FA0" font-weight="600">top_p</text><text x="389" y="351" fill="#7B3FA0">trims the tail</text>
<line x1="438" y1="342" x2="454" y2="342" stroke="#185FA5" stroke-width="2" marker-end="url(#b)"/>
<rect x="456" y="322" width="126" height="40" rx="9" fill="#E6EEF7" stroke="#185FA5" stroke-width="1.2"/>
<rect x="466" y="332" width="20" height="20" rx="4" fill="#FFFFFF" stroke="#185FA5" stroke-width="1.1"/><circle cx="472" cy="338" r="1.6" fill="#185FA5"/><circle cx="480" cy="346" r="1.6" fill="#185FA5"/><circle cx="476" cy="342" r="1.6" fill="#185FA5"/><text x="540" y="339" fill="#1d3a5f" font-weight="600">weighted</text><text x="540" y="351" fill="#1d3a5f" font-weight="600">dice roll</text>
<line x1="582" y1="342" x2="598" y2="342" stroke="#185FA5" stroke-width="2" marker-end="url(#b)"/>
<rect x="600" y="322" width="130" height="40" rx="9" fill="#E1F5EE" stroke="#0F6E56" stroke-width="1.4"/>
<circle cx="614" cy="342" r="4" fill="#0F6E56"/><text x="668" y="339" fill="#0F6E56" font-weight="600">emit 1 token</text><text x="668" y="351" fill="#0F6E56">→ "cheese"</text>
</g>

<polyline points="665,362 665,392 104,392 104,364" fill="none" stroke="#0F6E56" stroke-width="1.8" stroke-dasharray="6 3" marker-end="url(#g)"/>
<rect x="250" y="383" width="310" height="18" rx="9" fill="#FFFFFF" stroke="#0F6E56" stroke-width="0.8" stroke-dasharray="3 2"/>
<text x="405" y="395" text-anchor="middle" font-family="sans-serif" font-size="8.5" font-weight="600" fill="#0F6E56">↻ append the new token, then run the whole row again</text>

<text x="405" y="424" text-anchor="middle" font-family="sans-serif" font-size="9" fill="#444441">Loop continues until the model emits the <tspan font-weight="600">EOS</tspan> (end-of-text) token — or hits <tspan font-family="monospace">max_tokens</tspan>.</text>
<text x="405" y="442" text-anchor="middle" font-family="sans-serif" font-size="8.5" font-style="italic" fill="#185FA5">temperature &amp; top_p are applied at EVERY pass — the model has no plan, it re-decides each token from scratch.</text>
<text x="405" y="460" text-anchor="middle" font-family="sans-serif" font-size="8" fill="#C0392B">↳ that's why high-temperature errors snowball: a stray token feeds the next pass, corrupting what comes after.</text>

<!-- connectors: loop ④ edges → vocabulary (a) edges -->
<line x1="20" y1="482" x2="110" y2="516" stroke="#185FA5" stroke-width="2" marker-end="url(#b)"/>
<line x1="790" y1="482" x2="700" y2="516" stroke="#185FA5" stroke-width="2" marker-end="url(#b)"/>

<!-- ════════════════ ZOOM SECTION ════════════════ -->
<!-- (a) VOCAB BANNER (centered) -->
<rect x="110" y="518" width="590" height="92" rx="8" fill="#FFFFFF" stroke="#1D9E75" stroke-width="1.4"/>
<rect x="110" y="518" width="590" height="20" rx="8" fill="#E1F5EE"/><rect x="110" y="530" width="590" height="8" fill="#E1F5EE"/>
<text x="405" y="532" text-anchor="middle" font-family="sans-serif" font-size="9" font-weight="600" fill="#0F6E56">(a) the whole vocabulary — all ~100k+ tokens, always scored at every temperature</text>
<g font-family="sans-serif" font-size="8.5" transform="translate(-66,0)">
<text x="190" y="552" fill="#1D9E75" font-weight="600">cheese</text><text x="234" y="552" fill="#1D9E75" font-weight="600">pepperoni</text><text x="296" y="552" fill="#1D9E75" font-weight="600">plain</text><text x="332" y="552" fill="#1D9E75" font-weight="600">Sicilian</text><text x="384" y="552" fill="#1D9E75" font-weight="600">white</text><text x="422" y="552" fill="#1D9E75" font-weight="600">slice</text><text x="456" y="552" fill="#1D9E75" font-weight="600">mozzarella</text><text x="528" y="552" fill="#7FB9A6" font-weight="600">marinara</text><text x="586" y="552" fill="#7FB9A6" font-weight="600">fold</text><text x="618" y="552" fill="#7FB9A6" font-weight="600">coal</text><text x="652" y="552" fill="#7FB9A6" font-weight="600">brick</text><text x="690" y="552" fill="#A8A69E">pepper</text><text x="736" y="552" fill="#A8A69E">oven</text>
<text x="190" y="568" fill="#7FB9A6" font-weight="600">crust</text><text x="226" y="568" fill="#7FB9A6" font-weight="600">pie</text><text x="250" y="568" fill="#1D9E75" font-weight="600">Margherita</text><text x="320" y="568" fill="#7FB9A6" font-weight="600">calzone</text><text x="372" y="568" fill="#7FB9A6" font-weight="600">garlic</text><text x="412" y="568" fill="#7FB9A6" font-weight="600">basil</text><text x="446" y="568" fill="#7FB9A6" font-weight="600">oregano</text><text x="500" y="568" fill="#1D9E75" font-weight="600">grandma</text><text x="556" y="568" fill="#1D9E75" font-weight="600">square</text><text x="606" y="568" fill="#7FB9A6">knots</text><text x="644" y="568" fill="#7FB9A6">dough</text><text x="690" y="568" fill="#7FB9A6">thin</text><text x="724" y="568" fill="#A8A69E">deep</text>
<text x="190" y="584" fill="#2E7E96" font-weight="600">Brooklyn</text><text x="248" y="584" fill="#2E7E96" font-weight="600">bodega</text><text x="296" y="584" fill="#2E7E96" font-weight="600">Manhattan</text><text x="364" y="584" fill="#2E7E96">borough</text><text x="416" y="584" fill="#A8A69E">subway</text><text x="464" y="584" fill="#A8A69E">sushi</text><text x="500" y="584" fill="#A8A69E">ramen</text><text x="540" y="584" fill="#A8A69E">tax</text><text x="568" y="584" fill="#9A8FAF">quantum</text><text x="624" y="584" fill="#A8A69E">deli</text><text x="654" y="584" fill="#9A8FAF">avenue</text><text x="700" y="584" fill="#A8A69E">L-train</text><text x="746" y="584" fill="#A8A69E">tide</text>
<text x="190" y="600" fill="#A8A69E">Paris</text><text x="224" y="600" fill="#A8A69E">code</text><text x="256" y="600" fill="#A8A69E">dog</text><text x="284" y="600" fill="#A8A69E">run</text><text x="312" y="600" fill="#A8A69E">seven</text><text x="348" y="600" fill="#A8A69E">blue</text><text x="378" y="600" fill="#A8A69E">why</text><text x="406" y="600" fill="#A8A69E">melt</text><text x="438" y="600" fill="#9A8FAF">ocean</text><text x="476" y="600" fill="#A8A69E">guitar</text><text x="516" y="600" fill="#9A8FAF">prism</text><text x="552" y="600" fill="#A8A69E">harbor</text><text x="596" y="600" fill="#9A8FAF">cobalt</text><text x="640" y="600" fill="#A8A69E">echo</text><text x="672" y="600" fill="#9A8FAF">monsoon</text><text x="730" y="600" fill="#A8A69E">fjord</text>
</g>

<!-- straight arrows vocab → temperature panels -->
<text x="405" y="624" text-anchor="middle" font-family="sans-serif" font-size="9" font-weight="600" fill="#0F6E56">(b) temperature reshapes each word's %</text>
<line x1="262" y1="613" x2="158" y2="636" stroke="#C7891C" stroke-width="1.7" marker-end="url(#cu)"/>
<line x1="430" y1="613" x2="406" y2="636" stroke="#C7891C" stroke-width="1.7" marker-end="url(#cu)"/>
<line x1="618" y1="613" x2="662" y2="636" stroke="#C7891C" stroke-width="1.7" marker-end="url(#cu)"/>

<!-- TEMP PANELS -->
<rect x="22" y="638" width="248" height="128" rx="7" fill="#FFFFFF" stroke="#185FA5" stroke-width="1.3"/>
<rect x="22" y="638" width="248" height="26" rx="7" fill="#E6EEF7"/>
<text x="146" y="650" text-anchor="middle" font-family="sans-serif" font-size="9.5" font-weight="600" fill="#185FA5">LOW T · 0.1–0.3</text>
<text x="146" y="660" text-anchor="middle" font-family="sans-serif" font-size="7" font-style="italic" fill="#5F5E5A">one word dominates</text>
<g font-family="sans-serif" font-size="8.5">
<text x="34" y="684" fill="#0F7A57" font-weight="600">cheese</text><rect x="110" y="678" width="110" height="7" rx="1" fill="#1D9E75"/><text x="224" y="684" font-family="monospace" font-size="8">92%</text>
<text x="34" y="702" fill="#B0700A" font-weight="600">pepperoni</text><rect x="110" y="696" width="7" height="7" rx="1" fill="#EF9F27"/><text x="120" y="702" font-family="monospace" font-size="8">5%</text>
<text x="34" y="720" fill="#185FA5" font-weight="600">plain</text><rect x="110" y="714" width="3" height="7" rx="1" fill="#185FA5"/><text x="116" y="720" font-family="monospace" font-size="8">2%</text>
<text x="34" y="738" fill="#7B3FA0" font-weight="600">Sicilian</text><rect x="110" y="732" width="2" height="7" rx="1" fill="#7B3FA0"/><text x="115" y="738" font-family="monospace" font-size="8">1%</text>
<text x="34" y="756" fill="#888780">white / sushi / rest</text><text x="224" y="756" font-family="monospace" font-size="8" fill="#888780">≈0%</text>
</g>

<rect x="282" y="638" width="248" height="128" rx="7" fill="#FFFFFF" stroke="#1D9E75" stroke-width="1.3"/>
<rect x="282" y="638" width="248" height="26" rx="7" fill="#E1F5EE"/>
<text x="406" y="650" text-anchor="middle" font-family="sans-serif" font-size="9.5" font-weight="600" fill="#0F6E56">MED T · 0.6–0.9</text>
<text x="406" y="660" text-anchor="middle" font-family="sans-serif" font-size="7" font-style="italic" fill="#5F5E5A">spread across a few</text>
<g font-family="sans-serif" font-size="8.5">
<text x="294" y="682" fill="#0F7A57" font-weight="600">cheese</text><rect x="370" y="676" width="48" height="7" rx="1" fill="#1D9E75"/><text x="484" y="682" font-family="monospace" font-size="8">32%</text>
<text x="294" y="698" fill="#B0700A" font-weight="600">pepperoni</text><rect x="370" y="692" width="39" height="7" rx="1" fill="#EF9F27"/><text x="484" y="698" font-family="monospace" font-size="8">26%</text>
<text x="294" y="714" fill="#185FA5" font-weight="600">plain</text><rect x="370" y="708" width="26" height="7" rx="1" fill="#185FA5"/><text x="484" y="714" font-family="monospace" font-size="8">17%</text>
<text x="294" y="730" fill="#7B3FA0" font-weight="600">Sicilian</text><rect x="370" y="724" width="16" height="7" rx="1" fill="#7B3FA0"/><text x="484" y="730" font-family="monospace" font-size="8">11%</text>
<text x="294" y="746" fill="#2E7E96" font-weight="600">white</text><rect x="370" y="740" width="12" height="7" rx="1" fill="#4FA0C0"/><text x="484" y="746" font-family="monospace" font-size="8">8%</text>
<text x="294" y="762" fill="#888780">sushi / ramen</text><rect x="370" y="756" width="9" height="7" rx="1" fill="#B8B6AE"/><text x="484" y="762" font-family="monospace" font-size="8" fill="#888780">≈6%</text>
</g>

<rect x="542" y="638" width="248" height="128" rx="7" fill="#FFFFFF" stroke="#C0392B" stroke-width="1.3"/>
<rect x="542" y="638" width="248" height="26" rx="7" fill="#FBECEA"/>
<text x="666" y="650" text-anchor="middle" font-family="sans-serif" font-size="9.5" font-weight="600" fill="#C0392B">HIGH T · 1.3–2.0</text>
<text x="666" y="660" text-anchor="middle" font-family="sans-serif" font-size="7" font-style="italic" fill="#C0392B">nearly equal — junk rises</text>
<g font-family="sans-serif" font-size="8.5">
<text x="554" y="680" fill="#0F7A57" font-weight="600">cheese</text><rect x="630" y="674" width="22" height="6" rx="1" fill="#1D9E75"/><text x="744" y="680" font-family="monospace" font-size="8">14%</text>
<text x="554" y="695" fill="#B0700A" font-weight="600">pepperoni</text><rect x="630" y="689" width="19" height="6" rx="1" fill="#EF9F27"/><text x="744" y="695" font-family="monospace" font-size="8">12%</text>
<text x="554" y="710" fill="#185FA5" font-weight="600">plain</text><rect x="630" y="704" width="17" height="6" rx="1" fill="#185FA5"/><text x="744" y="710" font-family="monospace" font-size="8">11%</text>
<text x="554" y="725" fill="#7B3FA0" font-weight="600">Sicilian</text><rect x="630" y="719" width="16" height="6" rx="1" fill="#7B3FA0"/><text x="744" y="725" font-family="monospace" font-size="8">10%</text>
<text x="554" y="740" fill="#2E7E96" font-weight="600">white</text><rect x="630" y="734" width="14" height="6" rx="1" fill="#4FA0C0"/><text x="744" y="740" font-family="monospace" font-size="8">9%</text>
<text x="554" y="755" fill="#C0392B" font-weight="600">sushi</text><rect x="630" y="749" width="12" height="6" rx="1" fill="#C0392B"/><text x="744" y="755" font-family="monospace" font-size="8" fill="#C0392B">8%</text>
</g>

<!-- streams + funnel -->
<text x="405" y="780" text-anchor="middle" font-family="sans-serif" font-size="9" font-weight="600" fill="#7B3FA0">(c) top_p funnel</text>
<path d="M146 766 C146 790 300 796 388 820" fill="none" stroke="#185FA5" stroke-width="6" stroke-linecap="round" opacity="0.4"/>
<path d="M406 766 C406 794 405 808 405 820" fill="none" stroke="#1D9E75" stroke-width="6" stroke-linecap="round" opacity="0.4"/>
<path d="M666 766 C666 790 512 796 422 820" fill="none" stroke="#C0392B" stroke-width="6" stroke-linecap="round" opacity="0.4"/>
<polygon points="330,784 480,784 420,824 390,824" fill="#F2F0E9" opacity="0.92"/>
<polygon points="330,784 480,784 420,824 390,824" fill="none" stroke="#6E6C66" stroke-width="1.5"/>
<rect x="390" y="824" width="30" height="22" fill="#F2F0E9" stroke="#6E6C66" stroke-width="1.5"/>
<line x1="405" y1="846" x2="405" y2="860" stroke="#7B3FA0" stroke-width="1.8" marker-end="url(#b)"/>

<!-- running-total rule -->
<rect x="20" y="868" width="770" height="50" rx="8" fill="#FAF7FD" stroke="#7B3FA0" stroke-width="1.3"/>
<text x="30" y="884" font-family="sans-serif" font-size="9.5" font-weight="700" fill="#7B3FA0">the funnel keeps words by a running TOTAL — keep until Σ ≥ top_p; the word that crosses it is KEPT.</text>
<rect x="30" y="892" width="106" height="14" fill="#1D9E75"/><rect x="136" y="892" width="86" height="14" fill="#EF9F27"/><rect x="222" y="892" width="56" height="14" fill="#185FA5"/><rect x="278" y="892" width="36" height="14" fill="#7B3FA0"/><rect x="314" y="892" width="26" height="14" fill="#4FA0C0"/><rect x="340" y="892" width="20" height="14" fill="#B8B6AE"/>
<line x1="327" y1="888" x2="327" y2="910" stroke="#C0392B" stroke-width="1.5" stroke-dasharray="3 2"/>
<text x="327" y="915" text-anchor="middle" font-family="sans-serif" font-size="7.5" font-weight="700" fill="#C0392B">0.90</text>
<text x="380" y="903" font-family="monospace" font-size="9" fill="#5F5E5A">Σ: 32 → 58 → 75 → 86 → <tspan fill="#0F6E56" font-weight="600">94 ✓ stop</tspan>  ·  white kept, off-context dropped</text>
<line x1="405" y1="918" x2="405" y2="932" stroke="#7B3FA0" stroke-width="1.8" marker-end="url(#b)"/>

<!-- (d) survivor matrix -->
<rect x="20" y="934" width="770" height="156" rx="8" fill="#FFFFFF" stroke="#7B3FA0" stroke-width="1.4"/>
<rect x="20" y="934" width="770" height="20" rx="8" fill="#F0E8F8"/><rect x="20" y="946" width="770" height="8" fill="#F0E8F8"/>
<text x="405" y="948" text-anchor="middle" font-family="sans-serif" font-size="9.5" font-weight="600" fill="#7B3FA0">(d) how many words survive the funnel  (each number = words kept)</text>

<text x="400" y="968" text-anchor="middle" font-family="sans-serif" font-size="8.5" font-weight="600" fill="#185FA5">from LOW T</text>
<text x="545" y="968" text-anchor="middle" font-family="sans-serif" font-size="8.5" font-weight="600" fill="#0F6E56">from MED T</text>
<text x="690" y="968" text-anchor="middle" font-family="sans-serif" font-size="8.5" font-weight="600" fill="#C0392B">from HIGH T</text>
<line x1="330" y1="972" x2="330" y2="1074" stroke="#EFEEE9"/><line x1="475" y1="972" x2="475" y2="1074" stroke="#EFEEE9"/><line x1="615" y1="972" x2="615" y2="1074" stroke="#EFEEE9"/><line x1="760" y1="972" x2="760" y2="1074" stroke="#EFEEE9"/>
<line x1="330" y1="1004" x2="760" y2="1004" stroke="#EFEEE9"/><line x1="330" y1="1038" x2="760" y2="1038" stroke="#EFEEE9"/>

<text x="324" y="992" text-anchor="end" font-family="monospace" font-size="9" font-weight="600" fill="#7B3FA0">top_p 1.00</text>
<text x="324" y="1026" text-anchor="end" font-family="monospace" font-size="9" font-weight="600" fill="#7B3FA0">top_p 0.90</text>
<text x="324" y="1060" text-anchor="end" font-family="monospace" font-size="9" font-weight="600" fill="#7B3FA0">top_p 0.50</text>

<rect x="336" y="976" width="132" height="26" rx="4" fill="#EBF6F1"/><text x="402" y="993" text-anchor="middle" font-family="sans-serif" font-size="11" font-weight="700" fill="#0F6E56">1–2 <tspan font-size="7" font-weight="400" fill="#5F5E5A">words</tspan></text>
<rect x="481" y="976" width="132" height="26" rx="4" fill="#FBF1DF"/><text x="547" y="993" text-anchor="middle" font-family="sans-serif" font-size="11" font-weight="700" fill="#B0700A">≈ 8 <tspan font-size="7" font-weight="400" fill="#5F5E5A">words</tspan></text>
<rect x="621" y="976" width="132" height="26" rx="4" fill="#FBE6E2"/><text x="687" y="993" text-anchor="middle" font-family="sans-serif" font-size="11" font-weight="700" fill="#C0392B">≈ 200 <tspan font-size="7" font-weight="400" fill="#C0392B">fat tail</tspan></text>

<rect x="336" y="1010" width="132" height="26" rx="4" fill="#EBF6F1"/><text x="402" y="1027" text-anchor="middle" font-family="sans-serif" font-size="11" font-weight="700" fill="#0F6E56">1 <tspan font-size="7" font-weight="400" fill="#5F5E5A">word</tspan></text>
<rect x="481" y="1010" width="132" height="26" rx="4" fill="#EBF6F1"/><text x="547" y="1027" text-anchor="middle" font-family="sans-serif" font-size="11" font-weight="700" fill="#0F6E56">≈ 5 <tspan font-size="7" font-weight="400" fill="#5F5E5A">words</tspan></text>
<rect x="621" y="1010" width="132" height="26" rx="4" fill="#FBF1DF"/><text x="687" y="1027" text-anchor="middle" font-family="sans-serif" font-size="11" font-weight="700" fill="#B0700A">≈ 40 <tspan font-size="7" font-weight="400" fill="#5F5E5A">words</tspan></text>

<rect x="336" y="1044" width="132" height="26" rx="4" fill="#EBF6F1"/><text x="402" y="1061" text-anchor="middle" font-family="sans-serif" font-size="11" font-weight="700" fill="#0F6E56">1 <tspan font-size="7" font-weight="400" fill="#5F5E5A">word</tspan></text>
<rect x="481" y="1044" width="132" height="26" rx="4" fill="#EBF6F1"/><text x="547" y="1061" text-anchor="middle" font-family="sans-serif" font-size="11" font-weight="700" fill="#0F6E56">≈ 3 <tspan font-size="7" font-weight="400" fill="#5F5E5A">words</tspan></text>
<rect x="621" y="1044" width="132" height="26" rx="4" fill="#EBF6F1"/><text x="687" y="1061" text-anchor="middle" font-family="sans-serif" font-size="11" font-weight="700" fill="#0F6E56">≈ 8 <tspan font-size="7" font-weight="400" fill="#5F5E5A">words</tspan></text>

<text x="400" y="1084" text-anchor="middle" font-family="sans-serif" font-size="7.5" font-style="italic" fill="#185FA5">top_p idle</text>
<text x="545" y="1084" text-anchor="middle" font-family="sans-serif" font-size="7.5" font-style="italic" fill="#0F6E56">starts to bite</text>
<text x="690" y="1084" text-anchor="middle" font-family="sans-serif" font-size="7.5" font-style="italic" fill="#C0392B">does the heavy lifting</text>

<line x1="405" y1="1090" x2="405" y2="1102" stroke="#185FA5" stroke-width="2" marker-end="url(#b)"/>

<!-- DICE ICON between (d) and ⑤ -->
<rect x="389" y="1104" width="32" height="32" rx="7" fill="#FFFFFF" stroke="#185FA5" stroke-width="1.6"/>
<circle cx="396" cy="1112" r="2.6" fill="#185FA5"/><circle cx="414" cy="1112" r="2.6" fill="#185FA5"/><circle cx="405" cy="1120" r="2.6" fill="#185FA5"/><circle cx="396" cy="1128" r="2.6" fill="#185FA5"/><circle cx="414" cy="1128" r="2.6" fill="#185FA5"/>
<text x="432" y="1117" font-family="sans-serif" font-size="9" font-weight="600" fill="#1d3a5f">weighted dice roll</text>
<text x="432" y="1129" font-family="sans-serif" font-size="8" fill="#5F5E5A">one random draw picks ONE token → <tspan font-family="monospace" fill="#0F6E56">"cheese"</tspan></text>

<line x1="405" y1="1138" x2="405" y2="1154" stroke="#0F6E56" stroke-width="2" marker-end="url(#g)"/>

<!-- ⑤ DETOKENIZE -->
<rect x="20" y="1156" width="770" height="72" rx="8" fill="#FFFFFF" stroke="#0F6E56" stroke-width="1.4"/>
<rect x="20" y="1156" width="770" height="22" rx="8" fill="#E1F5EE"/><rect x="20" y="1168" width="770" height="10" fill="#E1F5EE"/>
<text x="405" y="1171" text-anchor="middle" font-family="sans-serif" font-size="10" font-weight="600" fill="#0F6E56">⑤ Detokenize — join the emitted tokens back into text</text>
<text x="60" y="1206" font-family="monospace" font-size="9" fill="#888780">[cheese][ slice][ —][ the][ NYC][ staple][.]</text>
<text x="320" y="1206" font-family="monospace" font-size="10" fill="#185FA5">———→</text>
<rect x="400" y="1194" width="262" height="22" rx="6" fill="#E1F5EE" stroke="#1D9E75" stroke-width="1.2"/>
<text x="531" y="1209" text-anchor="middle" font-family="sans-serif" font-size="11" font-weight="600" fill="#0F6E56">"the classic NYC cheese slice."</text>
<text x="678" y="1209" font-family="sans-serif" font-size="8" fill="#5F5E5A">← your answer</text>
</svg>
