<svg width="100%" viewBox="0 0 860 864" role="img" xmlns="http://www.w3.org/2000/svg">
<title>Retrieval, two lanes. Build-time: each chunk goes down a dense lane (embedding model to a vector in a vector store) and a sparse lane (analyzer to terms in an inverted index). Query-time mirrors it: the question is embedded to a query vector for the dense lane and analyzed to query terms for the sparse lane, each searched against its own store; the invariant is that the query uses the same transform as the index. Top-K matched chunks converge, their text and metadata build the prompt, the LLM answers. The search-store slot is swappable: dense, sparse, hybrid (fused with RRF), or hybrid plus a cross-encoder re-ranker. Color codes mechanism: teal is dense vectors, amber is sparse inverted index, purple is the shared prompt and LLM tail.</title>
<defs>
<marker id="d" viewBox="0 0 10 10" refX="8" refY="5" markerWidth="7" markerHeight="7" orient="auto-start-reverse"><path d="M1.5 1L8.5 5L1.5 9" fill="none" stroke="#444441" stroke-width="1.8" stroke-linecap="round" stroke-linejoin="round"/></marker>
<marker id="g" viewBox="0 0 10 10" refX="8" refY="5" markerWidth="6.5" markerHeight="6.5" orient="auto-start-reverse"><path d="M1.5 1L8.5 5L1.5 9" fill="none" stroke="#0F6E56" stroke-width="1.9" stroke-linecap="round" stroke-linejoin="round"/></marker>
<marker id="a" viewBox="0 0 10 10" refX="8" refY="5" markerWidth="6.5" markerHeight="6.5" orient="auto-start-reverse"><path d="M1.5 1L8.5 5L1.5 9" fill="none" stroke="#B0700A" stroke-width="1.9" stroke-linecap="round" stroke-linejoin="round"/></marker>
<style> text{font-family:sans-serif}.mono{font-family:monospace}.an{font-style:italic;fill:#5F5E5A}</style>
</defs>
<rect x="0" y="0" width="860" height="864" fill="#FFFFFF"/>

<text x="430" y="30" text-anchor="middle" font-size="17" font-weight="700" fill="#1d3a5f">Retrieval — two lanes, two mechanisms, one shared tail</text>
<text x="430" y="49" text-anchor="middle" font-size="10.5" fill="#5F5E5A">Dense = vectors, matched by similarity.  Sparse = an inverted index, matched by terms.  Both are built, then queried the same way.</text>

<!-- ===================== BAND A: BUILD TIME ===================== -->
<rect x="20" y="60" width="820" height="22" rx="6" fill="#1d3a5f"/>
<text x="34" y="76" font-size="10.5" font-weight="700" fill="#FFFFFF">① Build-time — turn each chunk into something searchable (the two lanes run in parallel)</text>

<!-- lane tags -->
<rect x="22" y="96" width="60" height="40" rx="8" fill="#E1F5EE" stroke="#1D9E75" stroke-width="1.3"/><text x="52" y="113" text-anchor="middle" font-size="9" font-weight="700" fill="#0F6E56">DENSE</text><text x="52" y="125" text-anchor="middle" font-size="7" fill="#0F6E56">vectors</text>
<rect x="22" y="150" width="60" height="40" rx="8" fill="#FAEEDA" stroke="#B0700A" stroke-width="1.3"/><text x="52" y="167" text-anchor="middle" font-size="9" font-weight="700" fill="#854F0B">SPARSE</text><text x="52" y="179" text-anchor="middle" font-size="7" fill="#854F0B">inverted idx</text>

<!-- dense build row -->
<rect x="92" y="96" width="60" height="40" rx="7" fill="#FFFFFF" stroke="#1d3a5f" stroke-width="1.2"/><text x="122" y="120" text-anchor="middle" font-size="9" font-weight="700" fill="#1d3a5f">chunk</text>
<line x1="152" y1="116" x2="172" y2="116" stroke="#0F6E56" stroke-width="1.6" marker-end="url(#g)"/>
<rect x="172" y="96" width="108" height="40" rx="7" fill="#E1F5EE" stroke="#5DCAA5"/><text x="226" y="113" text-anchor="middle" font-size="8.5" font-weight="700" fill="#0F6E56">Embedding model</text><text x="226" y="125" text-anchor="middle" font-size="7.5" fill="#0F6E56">text → vector</text>
<line x1="280" y1="116" x2="300" y2="116" stroke="#0F6E56" stroke-width="1.6" marker-end="url(#g)"/>
<rect x="300" y="96" width="150" height="40" rx="7" fill="#FFFFFF" stroke="#1D9E75" stroke-width="1.5"/><text x="375" y="111" text-anchor="middle" font-size="8.5" font-weight="700" fill="#0F6E56">dense vector</text><text x="375" y="124" text-anchor="middle" font-size="8" class="mono" fill="#185FA5">[0.02, −0.11, 0.07, …]</text>
<line x1="450" y1="116" x2="470" y2="116" stroke="#0F6E56" stroke-width="1.6" marker-end="url(#g)"/>
<rect x="470" y="96" width="120" height="40" rx="7" fill="#E1F5EE" stroke="#0F6E56" stroke-width="1.5"/><text x="530" y="113" text-anchor="middle" font-size="8.5" font-weight="700" fill="#0F6E56">Vector store</text><text x="530" y="125" text-anchor="middle" font-size="7.5" fill="#0F6E56">(ANN index)</text>

<!-- sparse build row -->
<rect x="92" y="150" width="60" height="40" rx="7" fill="#FFFFFF" stroke="#1d3a5f" stroke-width="1.2"/><text x="122" y="174" text-anchor="middle" font-size="9" font-weight="700" fill="#1d3a5f">chunk</text>
<line x1="152" y1="170" x2="172" y2="170" stroke="#B0700A" stroke-width="1.6" marker-end="url(#a)"/>
<rect x="172" y="150" width="108" height="40" rx="7" fill="#FAEEDA" stroke="#e7c98c"/><text x="226" y="167" text-anchor="middle" font-size="8.5" font-weight="700" fill="#854F0B">Analyzer</text><text x="226" y="179" text-anchor="middle" font-size="7.5" fill="#854F0B">tokenize · normalize · stem</text>
<line x1="280" y1="170" x2="300" y2="170" stroke="#B0700A" stroke-width="1.6" marker-end="url(#a)"/>
<rect x="300" y="150" width="150" height="40" rx="7" fill="#FFFFFF" stroke="#B0700A" stroke-width="1.5"/><text x="375" y="165" text-anchor="middle" font-size="8.5" font-weight="700" fill="#854F0B">terms</text><text x="375" y="178" text-anchor="middle" font-size="8" class="mono" fill="#854F0B">ship · order · rotterdam</text>
<line x1="450" y1="170" x2="470" y2="170" stroke="#B0700A" stroke-width="1.6" marker-end="url(#a)"/>
<rect x="470" y="150" width="120" height="40" rx="7" fill="#FAEEDA" stroke="#854F0B" stroke-width="1.5"/><text x="530" y="167" text-anchor="middle" font-size="8.5" font-weight="700" fill="#854F0B">Inverted index</text><text x="530" y="179" text-anchor="middle" font-size="7.5" fill="#854F0B">word → chunks</text>

<!-- both stores feed nothing further at build; note on right -->
<rect x="606" y="96" width="234" height="94" rx="8" fill="#FBFBFA" stroke="#e3e8ee"/>
<text x="618" y="113" font-size="8.5" font-weight="700" fill="#5F5E5A">Two artifacts, one corpus</text>
<text x="618" y="129" font-size="8" fill="#5F5E5A">Same chunk is stored twice — once as a</text>
<text x="618" y="141" font-size="8" fill="#5F5E5A">vector, once as terms. They are different</text>
<text x="618" y="153" font-size="8" fill="#5F5E5A">machines, not stages of one pipeline.</text>
<text x="618" y="171" font-size="8" fill="#0F6E56" font-weight="700">dense</text><text x="652" y="171" font-size="8" fill="#5F5E5A">→ meaning,</text><text x="708" y="171" font-size="8" fill="#B0700A" font-weight="700">sparse</text><text x="744" y="171" font-size="8" fill="#5F5E5A">→ exact words.</text>

<!-- INVARIANT -->
<rect x="20" y="200" width="820" height="32" rx="8" fill="#FFF6E6" stroke="#eed79f"/>
<text x="34" y="215" font-size="9" fill="#854F0B">★ <tspan font-weight="700">The invariant:</tspan> at query time each lane must use the <tspan font-weight="700">same transform</tspan> as build — the <tspan fill="#0F6E56" font-weight="700">same embedding model</tspan> (dense) and the <tspan fill="#B0700A" font-weight="700">same analyzer</tspan> (sparse).</text>
<text x="34" y="227" font-size="9" fill="#854F0B">If they differ — index stems "shipped"→"ship" but the query doesn't — you get <tspan font-weight="700">zero results, no error.</tspan> This is the classic search bug.</text>

<!-- ===================== BAND B: QUERY TIME ===================== -->
<rect x="20" y="244" width="820" height="22" rx="6" fill="#1d3a5f"/>
<text x="34" y="260" font-size="10.5" font-weight="700" fill="#FFFFFF">② Query-time — the same two lanes, mirrored: dense embeds the question, sparse analyzes it</text>

<!-- shared question -->
<rect x="22" y="286" width="62" height="50" rx="7" fill="#FFFFFF" stroke="#1d3a5f" stroke-width="1.4"/><text x="53" y="308" text-anchor="middle" font-size="9" font-weight="700" fill="#1d3a5f">Question</text><text x="53" y="320" text-anchor="middle" font-size="7" fill="#5F5E5A">from user</text>

<!-- dense query lane -->
<line x1="84" y1="300" x2="172" y2="292" stroke="#0F6E56" stroke-width="1.6" marker-end="url(#g)"/>
<rect x="172" y="276" width="108" height="36" rx="7" fill="#E1F5EE" stroke="#5DCAA5"/><text x="226" y="291" text-anchor="middle" font-size="8.5" font-weight="700" fill="#0F6E56">Embed</text><text x="226" y="303" text-anchor="middle" font-size="7" fill="#0F6E56">same model as build</text>
<line x1="280" y1="294" x2="300" y2="294" stroke="#0F6E56" stroke-width="1.6" marker-end="url(#g)"/>
<rect x="300" y="276" width="150" height="36" rx="7" fill="#FFFFFF" stroke="#1D9E75" stroke-width="1.5"/><text x="375" y="290" text-anchor="middle" font-size="8.5" font-weight="700" fill="#0F6E56">query vector</text><text x="375" y="302" text-anchor="middle" font-size="8" class="mono" fill="#185FA5">[0.03, −0.09, …]</text>
<line x1="450" y1="294" x2="470" y2="294" stroke="#0F6E56" stroke-width="1.6" marker-end="url(#g)"/>
<rect x="470" y="276" width="134" height="36" rx="7" fill="#E1F5EE" stroke="#0F6E56" stroke-width="1.5"/><text x="537" y="290" text-anchor="middle" font-size="8.5" font-weight="700" fill="#0F6E56">search vector store</text><text x="537" y="302" text-anchor="middle" font-size="7.5" fill="#0F6E56">cosine / ANN</text>

<!-- sparse query lane -->
<line x1="84" y1="322" x2="172" y2="330" stroke="#B0700A" stroke-width="1.6" marker-end="url(#a)"/>
<rect x="172" y="320" width="108" height="36" rx="7" fill="#FAEEDA" stroke="#e7c98c"/><text x="226" y="335" text-anchor="middle" font-size="8.5" font-weight="700" fill="#854F0B">Analyze</text><text x="226" y="347" text-anchor="middle" font-size="7" fill="#854F0B">same analyzer as build</text>
<line x1="280" y1="338" x2="300" y2="338" stroke="#B0700A" stroke-width="1.6" marker-end="url(#a)"/>
<rect x="300" y="320" width="150" height="36" rx="7" fill="#FFFFFF" stroke="#B0700A" stroke-width="1.5"/><text x="375" y="334" text-anchor="middle" font-size="8.5" font-weight="700" fill="#854F0B">query terms</text><text x="375" y="346" text-anchor="middle" font-size="8" class="mono" fill="#854F0B">ship · order</text>
<line x1="450" y1="338" x2="470" y2="338" stroke="#B0700A" stroke-width="1.6" marker-end="url(#a)"/>
<rect x="470" y="320" width="134" height="36" rx="7" fill="#FAEEDA" stroke="#854F0B" stroke-width="1.5"/><text x="537" y="334" text-anchor="middle" font-size="8.5" font-weight="700" fill="#854F0B">search inverted index</text><text x="537" y="346" text-anchor="middle" font-size="7.5" fill="#854F0B">BM25</text>

<!-- converge to tail: both stores → top-K matched chunks -->
<line x1="604" y1="294" x2="640" y2="316" stroke="#444441" stroke-width="1.4"/>
<line x1="604" y1="338" x2="640" y2="318" stroke="#444441" stroke-width="1.4"/>
<path d="M640 317 L640 360 L200 360 L200 380" fill="none" stroke="#444441" stroke-width="1.4" marker-end="url(#d)"/>
<text x="648" y="312" font-size="7.5" class="an">top matches →</text>

<!-- tail row -->
<rect x="140" y="382" width="120" height="38" rx="7" fill="#FFFFFF" stroke="#1d3a5f" stroke-width="1.3"/><text x="200" y="398" text-anchor="middle" font-size="8.5" font-weight="700" fill="#1d3a5f">top-K matched</text><text x="200" y="410" text-anchor="middle" font-size="8.5" font-weight="700" fill="#1d3a5f">chunks</text>
<line x1="260" y1="401" x2="276" y2="401" stroke="#444441" stroke-width="1.5" marker-end="url(#d)"/>
<rect x="276" y="382" width="124" height="38" rx="7" fill="#FFFDF8" stroke="#EF9F27"/><text x="338" y="398" text-anchor="middle" font-size="8.5" font-weight="700" fill="#854F0B">their TEXT</text><text x="338" y="410" text-anchor="middle" font-size="8" fill="#854F0B">+ metadata</text>
<line x1="400" y1="401" x2="416" y2="401" stroke="#444441" stroke-width="1.5" marker-end="url(#d)"/>
<rect x="416" y="382" width="120" height="38" rx="7" fill="#F0E8F8" stroke="#7B3FA0"/><text x="476" y="398" text-anchor="middle" font-size="8.5" font-weight="700" fill="#7B3FA0">Build the prompt</text><text x="476" y="410" text-anchor="middle" font-size="8" fill="#7B3FA0">question + chunks</text>
<line x1="536" y1="401" x2="552" y2="401" stroke="#444441" stroke-width="1.5" marker-end="url(#d)"/>
<rect x="552" y="382" width="62" height="38" rx="7" fill="#E6EEF7" stroke="#185FA5"/><text x="583" y="405" text-anchor="middle" font-size="9" font-weight="700" fill="#1d3a5f">LLM</text>
<line x1="614" y1="401" x2="630" y2="401" stroke="#444441" stroke-width="1.5" marker-end="url(#d)"/>
<rect x="630" y="382" width="92" height="38" rx="7" fill="#FFFFFF" stroke="#0F6E56" stroke-width="1.3"/><text x="676" y="405" text-anchor="middle" font-size="9" font-weight="700" fill="#0F6E56">Answer</text>

<!-- notes -->
<rect x="20" y="430" width="820" height="36" rx="8" fill="#FFF6E6" stroke="#eed79f"/>
<text x="34" y="446" font-size="9" fill="#854F0B">★ You search by <tspan fill="#0F6E56" font-weight="700">vector</tspan> or by <tspan fill="#B0700A" font-weight="700">terms</tspan>, but you always pass the chunk's <tspan font-weight="700">TEXT + metadata</tspan> to the LLM — the vector / terms were only the way to <tspan font-weight="700">find</tspan> it.</text>
<text x="34" y="460" font-size="9" fill="#854F0B">★ The LLM only sees what you retrieved — <tspan font-weight="700">retrieval quality is the ceiling on answer quality.</tspan></text>

<!-- ===================== BAND C: swappable ===================== -->
<rect x="20" y="478" width="820" height="22" rx="6" fill="#1d3a5f"/>
<text x="34" y="494" font-size="10.5" font-weight="700" fill="#FFFFFF">③ Candidate generation is the swappable choice — dense, sparse, or hybrid. Re-rank then layers on top of any of them.</text>

<!-- card 1: dense -->
<rect x="20" y="506" width="266" height="124" rx="9" fill="#FFFFFF" stroke="#1D9E75" stroke-width="1.4"/>
<rect x="20" y="506" width="266" height="20" rx="9" fill="#E1F5EE"/><rect x="20" y="516" width="266" height="10" fill="#E1F5EE"/>
<text x="32" y="520" font-size="9.5" font-weight="700" fill="#0F6E56">Dense (semantic)</text>
<text x="32" y="540" font-size="8.5" font-weight="700" fill="#444441">matches by MEANING</text>
<circle cx="52" cy="592" r="2.4" fill="#5F5E5A"/>
<line x1="52" y1="592" x2="94" y2="560" stroke="#0F6E56" stroke-width="1.8" marker-end="url(#g)"/>
<line x1="52" y1="592" x2="104" y2="578" stroke="#1D9E75" stroke-width="1.8" marker-end="url(#g)"/>
<path d="M78 574 A 26 26 0 0 0 84 566" fill="none" stroke="#888780" stroke-width="1"/>
<text x="98" y="556" font-size="6.5" fill="#0F6E56">query</text>
<text x="110" y="580" font-size="6.5" fill="#0F6E56">chunk</text>
<text x="122" y="594" font-size="7.5" font-weight="700" fill="#444441">small angle = similar</text>
<text x="32" y="614" font-size="8" fill="#5F5E5A">closer angle ⇒ closer meaning (cosine)</text>
<text x="32" y="626" font-size="8" class="an">good for: paraphrases, concepts</text>

<!-- card 2: sparse -->
<rect x="296" y="506" width="266" height="124" rx="9" fill="#FFFFFF" stroke="#B0700A" stroke-width="1.4"/>
<rect x="296" y="506" width="266" height="20" rx="9" fill="#FAEEDA"/><rect x="296" y="516" width="266" height="10" fill="#FAEEDA"/>
<text x="308" y="520" font-size="9.5" font-weight="700" fill="#854F0B">Sparse (keyword)</text>
<text x="308" y="540" font-size="8.5" font-weight="700" fill="#444441">matches EXACT terms</text>
<rect x="308" y="546" width="242" height="40" rx="4" fill="#FCFAF5" stroke="#e7c98c"/>
<text x="314" y="557" font-size="6.5" font-weight="700" fill="#854F0B">inverted index:  word → chunks containing it</text>
<text x="314" y="569" font-size="7.5" class="mono" fill="#444441"><tspan font-weight="700" fill="#B0700A">"MRI"</tspan>   → c3, c7</text>
<text x="314" y="581" font-size="7.5" class="mono" fill="#444441">"spine" → c7, c9</text>
<text x="308" y="602" font-size="8" fill="#5F5E5A"><tspan font-weight="700" fill="#B0700A">BM25</tspan> ranks by how often &amp; how rare a term is</text>
<text x="308" y="626" font-size="8" class="an">good for: names, codes, IDs, exact phrases</text>

<!-- card 3: hybrid -->
<rect x="572" y="506" width="266" height="124" rx="9" fill="#FFFFFF" stroke="#185FA5" stroke-width="1.6"/>
<rect x="572" y="506" width="266" height="20" rx="9" fill="#E6EEF7"/><rect x="572" y="516" width="266" height="10" fill="#E6EEF7"/>
<text x="584" y="520" font-size="9.5" font-weight="700" fill="#1d3a5f">Hybrid = dense + sparse</text>
<text x="584" y="540" font-size="8.5" font-weight="700" fill="#444441">run BOTH lanes, fuse the lists</text>
<text x="586" y="553" font-size="6.5" fill="#0F6E56">dense</text>
<rect x="584" y="556" width="24" height="11" rx="2" fill="#E1F5EE" stroke="#5DCAA5"/><text x="596" y="564" text-anchor="middle" font-size="7" class="mono" fill="#0F6E56">c7</text>
<rect x="584" y="569" width="24" height="11" rx="2" fill="#E1F5EE" stroke="#5DCAA5"/><text x="596" y="577" text-anchor="middle" font-size="7" class="mono" fill="#0F6E56">c3</text>
<text x="616" y="553" font-size="6.5" fill="#B0700A">sparse</text>
<rect x="616" y="556" width="24" height="11" rx="2" fill="#FAEEDA" stroke="#e7c98c"/><text x="628" y="564" text-anchor="middle" font-size="7" class="mono" fill="#854F0B">c3</text>
<rect x="616" y="569" width="24" height="11" rx="2" fill="#FAEEDA" stroke="#e7c98c"/><text x="628" y="577" text-anchor="middle" font-size="7" class="mono" fill="#854F0B">c1</text>
<line x1="646" y1="569" x2="660" y2="569" stroke="#444441" stroke-width="1.3" marker-end="url(#d)"/>
<text x="676" y="553" font-size="6.5" font-weight="700" fill="#185FA5">fused (RRF)</text>
<rect x="668" y="556" width="24" height="11" rx="2" fill="#E6EEF7" stroke="#185FA5"/><text x="680" y="564" text-anchor="middle" font-size="7" class="mono" fill="#1d3a5f">c3</text>
<rect x="668" y="569" width="24" height="11" rx="2" fill="#E6EEF7" stroke="#185FA5"/><text x="680" y="577" text-anchor="middle" font-size="7" class="mono" fill="#1d3a5f">c7</text>
<text x="584" y="602" font-size="8" fill="#5F5E5A"><tspan font-weight="700" fill="#185FA5">RRF</tspan> blends each item's rank in both lists</text>
<text x="584" y="614" font-size="8" class="an">good for: most real workloads</text>
<text x="584" y="626" font-size="8" font-weight="700" fill="#185FA5">★ common in production</text>

<!-- + re-rank: orthogonal layer that applies on ANY of the three above -->
<rect x="20" y="636" width="818" height="48" rx="9" fill="#F7F2FC" stroke="#7B3FA0" stroke-width="1.3"/>
<text x="34" y="654" font-size="9.5" font-weight="700" fill="#7B3FA0">+ Re-rank (optional) — layers on ANY of the above:</text>
<rect x="300" y="645" width="104" height="16" rx="4" fill="#FFFFFF" stroke="#c9c6bc"/><text x="352" y="656" text-anchor="middle" font-size="7" fill="#444441">dense · sparse · hybrid</text>
<line x1="404" y1="653" x2="416" y2="653" stroke="#444441" stroke-width="1.3" marker-end="url(#d)"/>
<rect x="418" y="645" width="86" height="16" rx="4" fill="#F0E8F8" stroke="#7B3FA0"/><text x="461" y="656" text-anchor="middle" font-size="7" font-weight="700" fill="#7B3FA0">cross-encoder</text>
<line x1="504" y1="653" x2="516" y2="653" stroke="#444441" stroke-width="1.3" marker-end="url(#d)"/>
<rect x="518" y="645" width="110" height="16" rx="4" fill="#FFFFFF" stroke="#7B3FA0"/><text x="573" y="656" text-anchor="middle" font-size="7" font-weight="700" fill="#7B3FA0">re-ordered top-K</text>
<text x="34" y="676" font-size="8.5" fill="#5F5E5A">A cross-encoder re-reads <tspan class="mono">(query + chunk)</tspan> together and re-orders the top few. <tspan font-weight="700" fill="#7B3FA0">Lane-agnostic</tspan> — it doesn't care how candidates were found. Higher precision, but slower &amp; pricier → re-rank only the top handful.</text>

<!-- ===================== BAND D: strategies ===================== -->
<rect x="20" y="692" width="820" height="22" rx="6" fill="#1d3a5f"/>
<text x="34" y="708" font-size="10.5" font-weight="700" fill="#FFFFFF">④ Strategies to make retrieval better — four stages (next week's topic)</text>

<rect x="20" y="722" width="195" height="52" rx="9" fill="#FFFFFF" stroke="#7B3FA0" stroke-width="1.3"/>
<text x="32" y="738" font-size="9.5" font-weight="700" fill="#7B3FA0">Improve the query</text>
<text x="32" y="750" font-size="7.5" class="an">before the search</text>
<text x="32" y="766" font-size="8" fill="#444441">rewrite · expand · multi-query · HyDE</text>

<rect x="225" y="722" width="195" height="52" rx="9" fill="#FFFFFF" stroke="#185FA5" stroke-width="1.3"/>
<text x="237" y="738" font-size="9.5" font-weight="700" fill="#1d3a5f">Match candidates</text>
<text x="237" y="750" font-size="7.5" class="an">the search itself</text>
<text x="237" y="766" font-size="8" fill="#444441">dense · sparse · hybrid  (see above ↑)</text>

<rect x="430" y="722" width="195" height="52" rx="9" fill="#FFFFFF" stroke="#B0700A" stroke-width="1.3"/>
<text x="442" y="738" font-size="9.5" font-weight="700" fill="#854F0B">Refine the results</text>
<text x="442" y="750" font-size="7.5" class="an">after the search</text>
<text x="442" y="766" font-size="8" fill="#444441">re-rank · filter · de-dup (MMR)</text>

<rect x="635" y="722" width="195" height="52" rx="9" fill="#FFFFFF" stroke="#1D9E75" stroke-width="1.3"/>
<text x="647" y="738" font-size="9.5" font-weight="700" fill="#0F6E56">Shape the context</text>
<text x="647" y="750" font-size="7.5" class="an">what the LLM sees</text>
<text x="647" y="766" font-size="8" fill="#444441">top-K · small-to-big · compress</text>

<!-- bottom line -->
<rect x="20" y="786" width="820" height="38" rx="9" fill="#1d3a5f"/>
<text x="430" y="803" text-anchor="middle" font-size="9.5" font-weight="700" fill="#FFFFFF">Start with semantic top-K; hybrid (often + a re-ranker) is the common production choice.</text>
<text x="430" y="817" text-anchor="middle" font-size="8.5" fill="#bcd3ee">Each added layer costs latency &amp; money — add it because a real miss demands it, not by default.</text>
</svg>
